<!-- icon666.com - MILLIONS vector ICONS FREE --><svg id="Glyph" viewBox="0 0 64 64" xmlns="http://www.w3.org/2000/svg"><path d="m20.79 19.18c7.914 5.13361 12.07841 6.45077 20.42 1.1898.62336-.38213 1.37713-.84125 2-1.25981 5.19-3.53 5.29-6.94 5.28-7.47v-6.11999a1.01512 1.01512 0 0 0 -1-1h-31.08a.99655.99655 0 0 0 -1 1v6.05c-.01.15-.26 3.82005 5.38 7.61z"></path><path d="m30.51 29.69c.60134.52935.8792 1.76094 1.42994 2.17.16-.04.34008-.34007.63006-.91a4.0909 4.0909 0 0 1 1.61-1.89c.09-1.42.19-2.59005.31-3.55a12.68535 12.68535 0 0 1 -4.97.03007c.11.96993.21 2.15993.3 3.59994a2.87335 2.87335 0 0 1 .69.54999z"></path><path d="m38.19 35.34c.02-2.38-.08-4.13-1.49-4.65-1.03-.09-1.42-.08-1.87.39-.80191 1.0239-1.14663 2.98841-3.21007 2.76-1.60176-.3182-1.81923-1.81233-2.5399-2.74-.47003-.5-.91003-.5-1.88003-.41-1.5124.46757-1.53361 2.75554-1.5 5.03-.12737 3.75858.50841 5.76543 3.1 4.89 1.0601-.91359 1.08276-2.76688 2.93-3.03 1.92012-.11359 2.33113 1.75109 3.06987 2.76a1.53133 1.53133 0 0 0 1.4801.45c1.78163.00221 1.99073-2.543 1.91003-5.45z"></path><path d="m33.85 42.17c-.8844-.48849-1.31989-2.11068-1.90987-2.59012-.639.61631-.94773 1.93859-1.79018 2.52.01.86006.01 2.55006.01 4.45009h3.68005c0-1.86997 0-3.51997.01-4.37997z"></path><path d="m30.16 55.61a1.84038 1.84038 0 0 0 3.68-.00006v-1.60994h-3.68z"></path><path d="m50.75 34.87c-7.03-.54-7.52-7.88-7.54-8.14v-5.25a36.73229 36.73229 0 0 1 -6.63 3.43c-.12.86-.25 2.07-.35 3.74 3.83819.025 4.09633 4.50719 3.95987 7.07.04013 2.38.11013 6.8-3.71987 7.06a5.78769 5.78769 0 0 1 -.62.04c-.01 1.12-.01 2.88-.01 4.73v8.06a3.84 3.84 0 0 1 -7.68 0v-2.51-.2c.00282-2.62183.00376-7.83794-.00993-10.1-4.49139.34164-4.56292-4.61631-4.44992-7.4501-.17666-2.4612.3622-6.85241 4.08007-6.6899-.11022-1.66-.23022-2.85-.35022-3.71a32.96391 32.96391 0 0 1 -5.66-2.8s-.56-.34-.98-.59v5.13c-.02.32-.50995 7.66-7.54 8.2-8.78.68-9.23 6.01-9.25 6.3v17.29a1.01236 1.01236 0 0 0 1 1l54-.02a1.00291 1.00291 0 0 0 1-1v-17.35c-.02-.23-.47-5.55-9.25-6.24z"></path><path d="m30.16 48.55h3.68v3.45h-3.68z"></path></svg>